<?xml version="1.0" encoding="UTF-8" standalone="no"?>
<svg
   viewBox="0 0 510 510"
   version="1.1"
   id="svg1"
   sodipodi:docname="fa-envelope.svg"
   inkscape:version="1.4 (e7c3feb100, 2024-10-09)"
   width="51"
   height="51"
   xmlns:inkscape="http://www.inkscape.org/namespaces/inkscape"
   xmlns:sodipodi="http://sodipodi.sourceforge.net/DTD/sodipodi-0.dtd"
   xmlns="http://www.w3.org/2000/svg"
   xmlns:svg="http://www.w3.org/2000/svg">
  <defs
     id="defs1" />
  <sodipodi:namedview
     id="namedview1"
     pagecolor="#ffffff"
     bordercolor="#000000"
     borderopacity="0.25"
     inkscape:showpageshadow="2"
     inkscape:pageopacity="0.0"
     inkscape:pagecheckerboard="0"
     inkscape:deskcolor="#d1d1d1"
     inkscape:zoom="1.6835938"
     inkscape:cx="255.99999"
     inkscape:cy="255.99999"
     inkscape:window-width="1920"
     inkscape:window-height="1080"
     inkscape:window-x="0"
     inkscape:window-y="0"
     inkscape:window-maximized="1"
     inkscape:current-layer="svg1" />
  <path
     d="M 256,80 C 149.9,80 62.4,159.4 49.6,262 c 9.4,-3.8 19.6,-6 30.4,-6 26.5,0 48,21.5 48,48 v 128 c 0,26.5 -21.5,48 -48,48 C 35.8,480 0,444.2 0,400 V 384 336 288 C 0,146.6 114.6,32 256,32 397.4,32 512,146.6 512,288 v 48 48 16 c 0,44.2 -35.8,80 -80,80 -26.5,0 -48,-21.5 -48,-48 V 304 c 0,-26.5 21.5,-48 48,-48 10.8,0 21,2.1 30.4,6 C 449.6,159.4 362.1,80 256,80 Z"
     id="path1" />
</svg>
